Nobile-Bold-KM.ufo
<glyph name="plus" format="1">
  <advance width="1064"/>
  <unicode hex="002B"/>
  <outline>
    <contour>
      <point x="392" y="97" type="line"/>
      <point x="680" y="97" type="line"/>
      <point x="680" y="450" type="line"/>
      <point x="959" y="450" type="line"/>
      <point x="959" y="706" type="line"/>
      <point x="680" y="706" type="line"/>
      <point x="680" y="1056" type="line"/>
      <point x="392" y="1056" type="line"/>
      <point x="392" y="706" type="line"/>
      <point x="115" y="706" type="line"/>
      <point x="115" y="450" type="line"/>
      <point x="392" y="450" type="line"/>
    </contour>
  </outline>
</glyph>
<glyph name="comma" format="1">
  <advance width="722"/>
  <unicode hex="002C"/>
  <outline>
    <contour>
      <point x="225" y="-307" type="line"/>
      <point x="393" y="-257"/>
      <point x="580" y="-187"/>
      <point x="580" y="53" type="curve" smooth="yes"/>
      <point x="580" y="415" type="line"/>
      <point x="162" y="415" type="line"/>
      <point x="162" y="0" type="line"/>
      <point x="340" y="0" type="line"/>
      <point x="340" y="-102"/>
      <point x="290" y="-147"/>
      <point x="163" y="-193" type="curve"/>
    </contour>
  </outline>
</glyph>
<glyph name="hyphen" format="1">
  <advance width="1120"/>
  <unicode hex="002D"/>
  <outline>
    <contour>
      <point x="156" y="574" type="line"/>
      <point x="950" y="574" type="line"/>
      <point x="950" y="836" type="line"/>
      <point x="156" y="836" type="line"/>
    </contour>
  </outline>
</glyph>
<glyph name="equal" format="1">
  <advance width="1188"/>
  <unicode hex="003D"/>
  <outline>
    <contour>
      <point x="77" y="269" type="line"/>
      <point x="1073" y="269" type="line"/>
      <point x="1073" y="502" type="line"/>
      <point x="77" y="502" type="line"/>
    </contour>
    <contour>
      <point x="77" y="644" type="line"/>
      <point x="1073" y="644" type="line"/>
      <point x="1073" y="877" type="line"/>
      <point x="77" y="877" type="line"/>
    </contour>
  </outline>
</glyph>
<glyph name="H" format="1">
  <advance width="1633"/>
  <unicode hex="0048"/>
  <outline>
    <contour>
      <point x="167" y="0" type="line"/>
      <point x="536" y="0" type="line"/>
      <point x="536" y="704" type="line"/>
      <point x="1097" y="704" type="line"/>
      <point x="1097" y="0" type="line"/>
      <point x="1466" y="0" type="line"/>
      <point x="1466" y="1578" type="line"/>
      <point x="1097" y="1578" type="line"/>
      <point x="1097" y="930" type="line"/>
      <point x="536" y="930" type="line"/>
      <point x="536" y="1578" type="line"/>
      <point x="167" y="1578" type="line"/>
    </contour>
    <contour>
      <point x="817" y="1578" type="move" name="top"/>
    </contour>
    <contour>
      <point x="817" y="789" type="move" name="center"/>
    </contour>
  </outline>
</glyph>
<glyph name="J" format="1">
  <advance width="894"/>
  <unicode hex="004A"/>
  <outline>
    <contour>
      <point x="135" y="-86" type="line"/>
      <point x="542" y="-77"/>
      <point x="727" y="95"/>
      <point x="727" y="507" type="curve" smooth="yes"/>
      <point x="727" y="1578" type="line"/>
      <point x="358" y="1578" type="line"/>
      <point x="358" y="506" type="line" smooth="yes"/>
      <point x="358" y="260"/>
      <point x="280" y="183"/>
      <point x="41" y="154" type="curve"/>
    </contour>
    <contour>
      <point x="458" y="1578" type="move" name="top"/>
    </contour>
  </outline>
</glyph>
<glyph name="V" format="1">
  <advance width="1442"/>
  <unicode hex="0056"/>
  <outline>
    <contour>
      <point x="537" y="0" type="line"/>
      <point x="903" y="0" type="line"/>
      <point x="1395" y="1578" type="line"/>
      <point x="1047" y="1578" type="line"/>
      <point x="725" y="423" type="line"/>
      <point x="382" y="1578" type="line"/>
      <point x="38" y="1578" type="line"/>
    </contour>
  </outline>
</glyph>
<glyph name="Y" format="1">
  <advance width="1328"/>
  <unicode hex="0059"/>
  <outline>
    <contour>
      <point x="489" y="0" type="line"/>
      <point x="837" y="0" type="line"/>
      <point x="837" y="518" type="line"/>
      <point x="1347" y="1578" type="line"/>
      <point x="973" y="1578" type="line"/>
      <point x="663" y="905" type="line"/>
      <point x="349" y="1578" type="line"/>
      <point x="-19" y="1578" type="line"/>
      <point x="489" y="518" type="line"/>
    </contour>
    <contour>
      <point x="664" y="1578" type="move" name="top"/>
    </contour>
  </outline>
</glyph>
<glyph name="asciicircum" format="1">
  <advance width="1229"/>
  <unicode hex="005E"/>
  <outline>
    <contour>
      <point x="229" y="563" type="line"/>
      <point x="501" y="563" type="line"/>
      <point x="613" y="947" type="line"/>
      <point x="725" y="563" type="line"/>
      <point x="999" y="563" type="line"/>
      <point x="741" y="1182" type="line"/>
      <point x="487" y="1182" type="line"/>
    </contour>
  </outline>
</glyph>
<glyph name="grave" format="1">
  <advance width="862"/>
  <unicode hex="0060"/>
  <outline>
    <contour>
      <point x="489" y="1298" type="line"/>
      <point x="646" y="1372" type="line"/>
      <point x="443" y="1985" type="line"/>
      <point x="131" y="1840" type="line"/>
    </contour>
    <contour>
      <point x="388.5" y="1164" type="move" name="_top"/>
    </contour>
  </outline>
</glyph>
<glyph name="a" format="1">
  <advance width="1243"/>
  <unicode hex="0061"/>
  <outline>
    <contour>
      <point x="484" y="-26" type="curve" smooth="yes"/>
      <point x="624" y="-26"/>
      <point x="755" y="73"/>
      <point x="806" y="150" type="curve"/>
      <point x="854" y="0" type="line"/>
      <point x="1125" y="0" type="line"/>
      <point x="1125" y="674" type="line" smooth="yes"/>
      <point x="1125" y="1015"/>
      <point x="988" y="1196"/>
      <point x="634" y="1196" type="curve" smooth="yes"/>
      <point x="472" y="1196"/>
      <point x="305" y="1168"/>
      <point x="166" y="1082" type="curve"/>
      <point x="249" y="873" type="line"/>
      <point x="366" y="928"/>
      <point x="516" y="959"/>
      <point x="602" y="954" type="curve" smooth="yes"/>
      <point x="740" y="946"/>
      <point x="776" y="859"/>
      <point x="778" y="751" type="curve" smooth="yes"/>
      <point x="778" y="736"/>
      <point x="777.0" y="711.903409421"/>
      <point x="777" y="697" type="curve"/>
      <point x="726" y="713"/>
      <point x="655" y="723"/>
      <point x="604" y="728" type="curve" smooth="yes"/>
      <point x="387" y="748"/>
      <point x="92" y="661"/>
      <point x="92" y="361" type="curve" smooth="yes"/>
      <point x="92" y="106"/>
      <point x="236" y="-26"/>
    </contour>
    <contour>
      <point x="578" y="208" type="curve" smooth="yes"/>
      <point x="479" y="208"/>
      <point x="407" y="260"/>
      <point x="401" y="350" type="curve" smooth="yes"/>
      <point x="389" y="523"/>
      <point x="527" y="538"/>
      <point x="667" y="538" type="curve" smooth="yes"/>
      <point x="699" y="538"/>
      <point x="745" y="529"/>
      <point x="777" y="521" type="curve"/>
      <point x="777" y="301" type="line"/>
      <point x="723" y="242"/>
      <point x="658" y="208"/>
    </contour>
    <contour>
      <point x="622" y="1164" type="move" name="top"/>
    </contour>
    <contour>
      <point x="1119" y="10" type="move" name="ogonek"/>
    </contour>
  </outline>
</glyph>
<glyph name="o" format="1">
  <advance width="1294"/>
  <unicode hex="006F"/>
  <outline>
    <contour>
      <point x="648" y="208" type="curve" smooth="yes"/>
      <point x="453" y="208"/>
      <point x="424" y="423"/>
      <point x="424" y="584" type="curve" smooth="yes"/>
      <point x="424" y="842"/>
      <point x="498" y="960"/>
      <point x="648" y="960" type="curve" smooth="yes"/>
      <point x="798" y="960"/>
      <point x="872" y="842"/>
      <point x="872" y="584" type="curve" smooth="yes"/>
      <point x="872" y="326"/>
      <point x="798" y="208"/>
    </contour>
    <contour>
      <point x="648" y="-26" type="curve" smooth="yes"/>
      <point x="1015" y="-26"/>
      <point x="1220" y="199"/>
      <point x="1220" y="582" type="curve" smooth="yes"/>
      <point x="1220" y="970"/>
      <point x="1009" y="1196"/>
      <point x="647" y="1196" type="curve" smooth="yes"/>
      <point x="284" y="1196"/>
      <point x="74" y="970"/>
      <point x="74" y="582" type="curve" smooth="yes"/>
      <point x="74" y="199"/>
      <point x="281" y="-26"/>
    </contour>
    <contour>
      <point x="647" y="1164" type="move" name="top"/>
    </contour>
  </outline>
</glyph>
<glyph name="r" format="1">
  <advance width="880"/>
  <unicode hex="0072"/>
  <outline>
    <contour>
      <point x="140" y="0" type="line"/>
      <point x="491" y="0" type="line"/>
      <point x="491" y="800" type="line"/>
      <point x="566" y="857"/>
      <point x="850" y="889"/>
      <point x="870" y="889" type="curve"/>
      <point x="834" y="1164" type="line"/>
      <point x="731" y="1164"/>
      <point x="543" y="1133"/>
      <point x="481" y="980" type="curve"/>
      <point x="441" y="1164" type="line"/>
      <point x="140" y="1164" type="line"/>
    </contour>
    <contour>
      <point x="422" y="1164" type="move" name="top"/>
    </contour>
    <contour>
      <point x="422" y="0" type="move" name="bottom"/>
    </contour>
  </outline>
</glyph>
<glyph name="t" format="1">
  <advance width="906"/>
  <unicode hex="0074"/>
  <outline>
    <contour>
      <point x="568" y="-15" type="curve" smooth="yes"/>
      <point x="696" y="-15"/>
      <point x="815" y="15"/>
      <point x="888" y="59" type="curve"/>
      <point x="826" y="280" type="line"/>
      <point x="771" y="258"/>
      <point x="714" y="241"/>
      <point x="658" y="241" type="curve" smooth="yes"/>
      <point x="591" y="241"/>
      <point x="538" y="279"/>
      <point x="538" y="394" type="curve" smooth="yes"/>
      <point x="538" y="1004" type="line"/>
      <point x="857" y="1004" type="line"/>
      <point x="857" y="1164" type="line"/>
      <point x="538" y="1164" type="line"/>
      <point x="538" y="1602" type="line"/>
      <point x="198" y="1526" type="line"/>
      <point x="198" y="1164" type="line"/>
      <point x="-1" y="1164" type="line"/>
      <point x="-1" y="1004" type="line"/>
      <point x="189" y="1004" type="line"/>
      <point x="189" y="427" type="line" smooth="yes"/>
      <point x="189" y="83"/>
      <point x="377" y="-15"/>
    </contour>
    <contour>
      <point x="452" y="582" type="move" name="center"/>
    </contour>
    <contour>
      <point x="452" y="0" type="move" name="bottom"/>
    </contour>
  </outline>
</glyph>
<glyph name="braceright" format="1">
  <advance width="852"/>
  <unicode hex="007D"/>
  <outline>
    <contour>
      <point x="160" y="-210" type="line"/>
      <point x="370" y="-210"/>
      <point x="598" y="-134"/>
      <point x="598" y="262" type="curve" smooth="yes"/>
      <point x="598" y="486"/>
      <point x="628" y="550"/>
      <point x="707" y="550" type="curve"/>
      <point x="707" y="739" type="line"/>
      <point x="627" y="739"/>
      <point x="599" y="805"/>
      <point x="599" y="1027" type="curve" smooth="yes"/>
      <point x="599" y="1428"/>
      <point x="366" y="1499"/>
      <point x="160" y="1499" type="curve"/>
      <point x="160" y="1310" type="line"/>
      <point x="238" y="1310"/>
      <point x="268" y="1288"/>
      <point x="269" y="982" type="curve" smooth="yes"/>
      <point x="269" y="738"/>
      <point x="366" y="675"/>
      <point x="451" y="645" type="curve"/>
      <point x="329" y="599"/>
      <point x="268" y="486"/>
      <point x="268" y="307" type="curve" smooth="yes"/>
      <point x="268" y="1"/>
      <point x="238" y="-21"/>
      <point x="160" y="-21" type="curve"/>
    </contour>
  </outline>
</glyph>
<glyph name="asciitilde" format="1">
  <advance width="1208"/>
  <unicode hex="007E"/>
  <outline>
    <contour>
      <point x="829" y="310" type="curve" smooth="yes"/>
      <point x="973" y="310"/>
      <point x="1061" y="440"/>
      <point x="1061" y="635" type="curve"/>
      <point x="850" y="635" type="line"/>
      <point x="850" y="564.441"/>
      <point x="838.841" y="540.597"/>
      <point x="793.856" y="540.597" type="curve" smooth="yes"/>
      <point x="702.726" y="540.597"/>
      <point x="571.941" y="671.565"/>
      <point x="407" y="674" type="curve"/>
      <point x="254" y="674"/>
      <point x="177" y="557"/>
      <point x="177" y="336" type="curve"/>
      <point x="385" y="336" type="line"/>
      <point x="385" y="414.574"/>
      <point x="402.49" y="449.228"/>
      <point x="439.637" y="449.228" type="curve" smooth="yes"/>
      <point x="532.529" y="449.228"/>
      <point x="675.006" y="310"/>
    </contour>
  </outline>
</glyph>
<glyph name="currency" format="1">
  <advance width="1396"/>
  <unicode hex="00A4"/>
  <outline>
    <contour>
      <point x="272" y="408" type="line"/>
      <point x="469" y="604" type="line"/>
      <point x="537" y="562"/>
      <point x="612" y="541"/>
      <point x="693" y="541" type="curve" smooth="yes"/>
      <point x="783" y="541"/>
      <point x="866" y="567"/>
      <point x="943" y="619" type="curve"/>
      <point x="1154" y="408" type="line"/>
      <point x="1283" y="538" type="line"/>
      <point x="1073" y="748" type="line"/>
      <point x="1126" y="825"/>
      <point x="1152" y="910"/>
      <point x="1152" y="1001" type="curve" smooth="yes"/>
      <point x="1152" y="1082"/>
      <point x="1131" y="1156"/>
      <point x="1088" y="1224" type="curve"/>
      <point x="1283" y="1419" type="line"/>
      <point x="1154" y="1549" type="line"/>
      <point x="961" y="1356" type="line"/>
      <point x="890" y="1403"/>
      <point x="812" y="1426"/>
      <point x="727" y="1426" type="curve" smooth="yes"/>
      <point x="636" y="1426"/>
      <point x="551" y="1400"/>
      <point x="474" y="1347" type="curve"/>
      <point x="272" y="1549" type="line"/>
      <point x="143" y="1419" type="line"/>
      <point x="345" y="1217" type="line"/>
      <point x="293" y="1140"/>
      <point x="267" y="1057"/>
      <point x="267" y="967" type="curve" smooth="yes"/>
      <point x="267" y="882"/>
      <point x="290" y="803"/>
      <point x="337" y="732" type="curve"/>
      <point x="143" y="538" type="line"/>
    </contour>
    <contour>
      <point x="708" y="716" type="curve" smooth="yes"/>
      <point x="536.189" y="716"/>
      <point x="453.729" y="842.703"/>
      <point x="453.729" y="972.557" type="curve" smooth="yes"/>
      <point x="453.729" y="1109.04"/>
      <point x="544.819" y="1249"/>
      <point x="719" y="1249" type="curve" smooth="yes"/>
      <point x="885.5" y="1249"/>
      <point x="965.772" y="1121.96"/>
      <point x="965.772" y="991.921" type="curve" smooth="yes"/>
      <point x="965.772" y="855.606"/>
      <point x="877.561" y="716"/>
    </contour>
  </outline>
</glyph>
<glyph name="brokenbar" format="1">
  <advance width="753"/>
  <unicode hex="00A6"/>
  <outline>
    <contour>
      <point x="225" y="-147" type="line"/>
      <point x="534" y="-147" type="line"/>
      <point x="534" y="599" type="line"/>
      <point x="225" y="599" type="line"/>
    </contour>
    <contour>
      <point x="225" y="921" type="line"/>
      <point x="534" y="921" type="line"/>
      <point x="534" y="1667" type="line"/>
      <point x="225" y="1667" type="line"/>
    </contour>
  </outline>
</glyph>
<glyph name="plusminus" format="1">
  <advance width="1134"/>
  <unicode hex="00B1"/>
  <outline>
    <contour>
      <point x="456" y="417" type="line"/>
      <point x="744" y="417" type="line"/>
      <point x="744" y="770" type="line"/>
      <point x="1023" y="770" type="line"/>
      <point x="1023" y="1019" type="line"/>
      <point x="744" y="1019" type="line"/>
      <point x="744" y="1369" type="line"/>
      <point x="456" y="1369" type="line"/>
      <point x="456" y="1019" type="line"/>
      <point x="179" y="1019" type="line"/>
      <point x="179" y="770" type="line"/>
      <point x="456" y="770" type="line"/>
    </contour>
    <contour>
      <point x="204" y="0" type="line"/>
      <point x="998" y="0" type="line"/>
      <point x="998" y="242" type="line"/>
      <point x="204" y="242" type="line"/>
    </contour>
  </outline>
</glyph>
<glyph name="acute" format="1">
  <advance width="1097"/>
  <unicode hex="00B4"/>
  <outline>
    <contour>
      <point x="538" y="1298" type="line"/>
      <point x="896" y="1840" type="line"/>
      <point x="584" y="1985" type="line"/>
      <point x="381" y="1372" type="line"/>
    </contour>
    <contour>
      <point x="638.5" y="1164" type="move" name="_top"/>
    </contour>
  </outline>
</glyph>
<glyph name="periodcentered" format="1">
  <advance width="571"/>
  <unicode hex="00B7"/>
  <outline>
    <contour>
      <point x="291" y="638" type="curve" smooth="yes"/>
      <point x="400" y="638"/>
      <point x="487" y="722"/>
      <point x="487" y="832" type="curve" smooth="yes"/>
      <point x="487" y="941"/>
      <point x="399" y="1026"/>
      <point x="291" y="1026" type="curve" smooth="yes"/>
      <point x="182" y="1026"/>
      <point x="98" y="941"/>
      <point x="98" y="832" type="curve" smooth="yes"/>
      <point x="98" y="726"/>
      <point x="179" y="638"/>
    </contour>
  </outline>
</glyph>
<glyph name="uni00B9" format="1">
  <advance width="912"/>
  <unicode hex="00B9"/>
  <outline>
    <contour>
      <point x="344" y="702" type="line"/>
      <point x="622" y="702" type="line"/>
      <point x="622" y="1639" type="line"/>
      <point x="358" y="1639" type="line"/>
      <point x="144" y="1552" type="line"/>
      <point x="219" y="1362" type="line"/>
      <point x="344" y="1416" type="line"/>
    </contour>
  </outline>
</glyph>
<glyph name="AE" format="1">
  <advance width="1917"/>
  <unicode hex="00C6"/>
  <outline>
    <contour>
      <point x="7" y="0" type="line"/>
      <point x="366" y="0" type="line"/>
      <point x="488" y="350" type="line"/>
      <point x="829" y="350" type="line"/>
      <point x="829" y="0" type="line"/>
      <point x="1869" y="0" type="line"/>
      <point x="1869" y="223" type="line"/>
      <point x="1190" y="223" type="line"/>
      <point x="1190" y="742" type="line"/>
      <point x="1769" y="742" type="line"/>
      <point x="1769" y="939" type="line"/>
      <point x="1190" y="939" type="line"/>
      <point x="1190" y="1374" type="line"/>
      <point x="1859" y="1374" type="line"/>
      <point x="1859" y="1577" type="line"/>
      <point x="627" y="1577" type="line"/>
    </contour>
    <contour>
      <point x="535" y="520" type="line"/>
      <point x="829" y="1343" type="line"/>
      <point x="829" y="520" type="line"/>
    </contour>
    <contour>
      <point x="959" y="1578" type="move" name="top"/>
    </contour>
  </outline>
</glyph>
<glyph name="Oslash" format="1">
  <advance width="1565"/>
  <unicode hex="00D8"/>
  <outline>
    <contour>
      <point x="519" y="-168" type="line"/>
      <point x="584" y="-6" type="line"/>
      <point x="647" y="-21"/>
      <point x="716" y="-28"/>
      <point x="791" y="-28" type="curve" smooth="yes"/>
      <point x="1280" y="-28"/>
      <point x="1501" y="288"/>
      <point x="1501" y="789" type="curve" smooth="yes"/>
      <point x="1501" y="1125"/>
      <point x="1398" y="1376"/>
      <point x="1194" y="1505" type="curve"/>
      <point x="1270" y="1694" type="line"/>
      <point x="1139" y="1739" type="line"/>
      <point x="1068" y="1564" type="line"/>
      <point x="987" y="1591"/>
      <point x="895" y="1605"/>
      <point x="791" y="1605" type="curve" smooth="yes"/>
      <point x="314" y="1605"/>
      <point x="81" y="1302"/>
      <point x="81" y="789" type="curve" smooth="yes"/>
      <point x="81" y="424"/>
      <point x="198" y="157"/>
      <point x="449" y="40" type="curve"/>
      <point x="383" y="-123" type="line"/>
    </contour>
    <contour>
      <point x="566" y="329" type="line"/>
      <point x="554" y="344" type="line" smooth="yes"/>
      <point x="473" y="445"/>
      <point x="450" y="609"/>
      <point x="450" y="789" type="curve" smooth="yes"/>
      <point x="450" y="1102"/>
      <point x="526" y="1339"/>
      <point x="791" y="1339" type="curve" smooth="yes"/>
      <point x="843" y="1339"/>
      <point x="891" y="1330"/>
      <point x="930" y="1310" type="curve" smooth="yes"/>
      <point x="959" y="1295" type="line"/>
    </contour>
    <contour>
      <point x="791" y="238" type="curve" smooth="yes"/>
      <point x="754" y="238"/>
      <point x="720" y="243"/>
      <point x="689" y="252" type="curve"/>
      <point x="1063" y="1180" type="line"/>
      <point x="1117" y="1072"/>
      <point x="1132" y="946"/>
      <point x="1132" y="789" type="curve" smooth="yes"/>
      <point x="1132" y="487"/>
      <point x="1063" y="238"/>
    </contour>
    <contour>
      <point x="783" y="1578" type="move" name="top"/>
    </contour>
  </outline>
</glyph>
<glyph name="ae" format="1">
  <advance width="1840"/>
  <unicode hex="00E6"/>
  <outline>
    <contour>
      <point x="471" y="-18" type="curve" smooth="yes"/>
      <point x="634" y="-18"/>
      <point x="802" y="37"/>
      <point x="898" y="200" type="curve"/>
      <point x="975" y="49"/>
      <point x="1087" y="-16"/>
      <point x="1284" y="-16" type="curve" smooth="yes"/>
      <point x="1436" y="-16"/>
      <point x="1574" y="16"/>
      <point x="1701" y="80" type="curve"/>
      <point x="1635" y="314" type="line"/>
      <point x="1552" y="254"/>
      <point x="1456" y="222"/>
      <point x="1349" y="222" type="curve" smooth="yes"/>
      <point x="1184" y="222"/>
      <point x="1091" y="339"/>
      <point x="1085" y="502" type="curve"/>
      <point x="1759" y="502" type="line"/>
      <point x="1759" y="666" type="line" smooth="yes"/>
      <point x="1759" y="974"/>
      <point x="1587" y="1186"/>
      <point x="1290" y="1186" type="curve" smooth="yes"/>
      <point x="1146" y="1186"/>
      <point x="1019" y="1139"/>
      <point x="951" y="1038" type="curve"/>
      <point x="890" y="1137"/>
      <point x="777" y="1186"/>
      <point x="610" y="1186" type="curve" smooth="yes"/>
      <point x="454" y="1186"/>
      <point x="252" y="1139"/>
      <point x="149" y="1073" type="curve"/>
      <point x="197" y="855" type="line"/>
      <point x="312" y="890"/>
      <point x="451" y="935"/>
      <point x="598" y="936" type="curve"/>
      <point x="740" y="936"/>
      <point x="755" y="850"/>
      <point x="757" y="745" type="curve" smooth="yes"/>
      <point x="757" y="717" type="line"/>
      <point x="714" y="725"/>
      <point x="663" y="729"/>
      <point x="604" y="729" type="curve" smooth="yes"/>
      <point x="327" y="729"/>
      <point x="72" y="664"/>
      <point x="72" y="373" type="curve" smooth="yes"/>
      <point x="72" y="118"/>
      <point x="215" y="-18"/>
    </contour>
    <contour>
      <point x="556" y="217" type="curve" smooth="yes"/>
      <point x="461" y="217"/>
      <point x="400" y="280"/>
      <point x="400" y="385" type="curve" smooth="yes"/>
      <point x="400" y="504"/>
      <point x="474" y="547"/>
      <point x="647" y="547" type="curve" smooth="yes"/>
      <point x="679" y="547"/>
      <point x="716" y="544"/>
      <point x="757" y="539" type="curve"/>
      <point x="757" y="310" type="line"/>
      <point x="693" y="253"/>
      <point x="631" y="217"/>
    </contour>
    <contour>
      <point x="1085" y="676" type="line"/>
      <point x="1085" y="702" type="line"/>
      <point x="1093" y="831"/>
      <point x="1152" y="950"/>
      <point x="1284" y="950" type="curve" smooth="yes"/>
      <point x="1414" y="950"/>
      <point x="1471" y="850"/>
      <point x="1475" y="692" type="curve" smooth="yes"/>
      <point x="1475" y="676" type="line"/>
    </contour>
    <contour>
      <point x="920.0" y="1164.0" type="move" name="top"/>
    </contour>
  </outline>
</glyph>
<glyph name="dcroat" format="1">
  <advance width="1322"/>
  <unicode hex="0111"/>
  <outline>
    <contour>
      <point x="546" y="-26" type="curve" smooth="yes"/>
      <point x="679" y="-26"/>
      <point x="828" y="54"/>
      <point x="862" y="166" type="curve"/>
      <point x="938" y="0" type="line"/>
      <point x="1185" y="0" type="line"/>
      <point x="1185" y="1292.9" type="line"/>
      <point x="1322" y="1292.9" type="line"/>
      <point x="1322" y="1439.9" type="line"/>
      <point x="1185" y="1439.9" type="line"/>
      <point x="1185" y="1638" type="line"/>
      <point x="834" y="1578" type="line"/>
      <point x="834" y="1439.9" type="line"/>
      <point x="640" y="1439.9" type="line"/>
      <point x="640" y="1292.9" type="line"/>
      <point x="834" y="1292.9" type="line"/>
      <point x="834" y="1046" type="line"/>
      <point x="761" y="1146"/>
      <point x="658" y="1196"/>
      <point x="525" y="1196" type="curve" smooth="yes"/>
      <point x="252" y="1196"/>
      <point x="78" y="950"/>
      <point x="78" y="624" type="curve" smooth="yes"/>
      <point x="78" y="307"/>
      <point x="161" y="-26"/>
    </contour>
    <contour>
      <point x="630" y="210" type="curve" smooth="yes"/>
      <point x="495" y="210"/>
      <point x="428" y="335"/>
      <point x="428" y="586" type="curve" smooth="yes"/>
      <point x="428" y="837"/>
      <point x="470" y="962"/>
      <point x="599" y="962" type="curve" smooth="yes"/>
      <point x="676" y="962"/>
      <point x="755" y="927"/>
      <point x="834" y="856" type="curve"/>
      <point x="834" y="296" type="line"/>
      <point x="793" y="239"/>
      <point x="725" y="210"/>
    </contour>
  </outline>
</glyph>
<glyph name="OE" format="1">
  <advance width="2297"/>
  <unicode hex="0152"/>
  <outline>
    <contour>
      <point x="768" y="-29" type="curve" smooth="yes"/>
      <point x="919.713" y="-29"/>
      <point x="1071.44" y="40.6271"/>
      <point x="1148" y="115" type="curve"/>
      <point x="1148" y="0" type="line"/>
      <point x="2198" y="0" type="line"/>
      <point x="2198" y="268" type="line"/>
      <point x="1516" y="268" type="line"/>
      <point x="1516" y="703" type="line"/>
      <point x="2118" y="703" type="line"/>
      <point x="2118" y="929" type="line"/>
      <point x="1516" y="929" type="line"/>
      <point x="1516" y="1310" type="line"/>
      <point x="2188" y="1310" type="line"/>
      <point x="2188" y="1578" type="line"/>
      <point x="1148" y="1578" type="line"/>
      <point x="1148" y="1508" type="line"/>
      <point x="1078" y="1557"/>
      <point x="945" y="1602"/>
      <point x="807" y="1602" type="curve" smooth="yes"/>
      <point x="330" y="1602"/>
      <point x="97" y="1302"/>
      <point x="97" y="789" type="curve" smooth="yes"/>
      <point x="97" y="302"/>
      <point x="328" y="-29"/>
    </contour>
    <contour>
      <point x="807" y="238" type="curve" smooth="yes"/>
      <point x="536" y="238"/>
      <point x="466" y="484"/>
      <point x="466" y="789" type="curve" smooth="yes"/>
      <point x="466" y="1093"/>
      <point x="536" y="1339"/>
      <point x="807" y="1339" type="curve" smooth="yes"/>
      <point x="1077" y="1339"/>
      <point x="1148" y="1095"/>
      <point x="1148" y="789" type="curve" smooth="yes"/>
      <point x="1148" y="491"/>
      <point x="1081" y="238"/>
    </contour>
    <contour>
      <point x="1149" y="1578" type="move" name="top"/>
    </contour>
  </outline>
</glyph>
<glyph name="uni0237" format="1">
  <advance width="730"/>
  <unicode hex="0237"/>
  <outline>
    <contour>
      <point x="102" y="-348" type="line"/>
      <point x="345" y="-292"/>
      <point x="551" y="-86"/>
      <point x="551" y="203" type="curve" smooth="yes"/>
      <point x="551" y="1160" type="line"/>
      <point x="200" y="1160" type="line"/>
      <point x="200" y="223" type="line" smooth="yes"/>
      <point x="200" y="39"/>
      <point x="123" y="-38"/>
      <point x="-9" y="-113" type="curve"/>
    </contour>
    <contour>
      <point x="365" y="1164" type="move" name="top"/>
    </contour>
  </outline>
</glyph>
<glyph name="caron" format="1">
  <advance width="1229"/>
  <unicode hex="02C7"/>
  <outline>
    <contour>
      <point x="487" y="1298" type="line"/>
      <point x="741" y="1298" type="line"/>
      <point x="999" y="1917" type="line"/>
      <point x="725" y="1917" type="line"/>
      <point x="613" y="1533" type="line"/>
      <point x="501" y="1917" type="line"/>
      <point x="229" y="1917" type="line"/>
    </contour>
    <contour>
      <point x="614" y="1164" type="move" name="_top"/>
    </contour>
  </outline>
</glyph>
<glyph name="breve" format="1">
  <advance width="647"/>
  <unicode hex="02D8"/>
  <outline>
    <contour>
      <point x="334" y="1298" type="curve" smooth="yes"/>
      <point x="513" y="1298"/>
      <point x="685" y="1412"/>
      <point x="696" y="1638" type="curve"/>
      <point x="474" y="1638" type="line"/>
      <point x="473" y="1541"/>
      <point x="405" y="1487"/>
      <point x="334" y="1487" type="curve" smooth="yes"/>
      <point x="267" y="1487"/>
      <point x="199" y="1541"/>
      <point x="197" y="1638" type="curve"/>
      <point x="-24" y="1638" type="line"/>
      <point x="-13" y="1412"/>
      <point x="159" y="1298"/>
    </contour>
    <contour>
      <point x="336" y="1164" type="move" name="_top"/>
    </contour>
  </outline>
</glyph>
<glyph name="emdash" format="1">
  <advance width="2048"/>
  <unicode hex="2014"/>
  <outline>
    <contour>
      <point x="156" y="574" type="line"/>
      <point x="1878" y="574" type="line"/>
      <point x="1878" y="836" type="line"/>
      <point x="156" y="836" type="line"/>
    </contour>
  </outline>
</glyph>
<glyph name="quoteleft" format="1">
  <advance width="670"/>
  <unicode hex="2018"/>
  <outline>
    <contour>
      <point x="119" y="856" type="line"/>
      <point x="537" y="856" type="line"/>
      <point x="537" y="1271" type="line"/>
      <point x="359" y="1271" type="line"/>
      <point x="359" y="1372"/>
      <point x="409" y="1417"/>
      <point x="536" y="1464" type="curve"/>
      <point x="474" y="1578" type="line"/>
      <point x="306" y="1528"/>
      <point x="119" y="1457"/>
      <point x="119" y="1218" type="curve" smooth="yes"/>
    </contour>
  </outline>
</glyph>
<glyph name="quotesinglbase" format="1">
  <advance width="672"/>
  <unicode hex="201A"/>
  <outline>
    <contour>
      <point x="203" y="-307" type="line"/>
      <point x="371" y="-257"/>
      <point x="558" y="-187"/>
      <point x="558" y="53" type="curve" smooth="yes"/>
      <point x="558" y="415" type="line"/>
      <point x="140" y="415" type="line"/>
      <point x="140" y="0" type="line"/>
      <point x="318" y="0" type="line"/>
      <point x="318" y="-102"/>
      <point x="268" y="-147"/>
      <point x="141" y="-193" type="curve"/>
    </contour>
  </outline>
</glyph>
<glyph name="quotedblbase" format="1">
  <advance width="1137"/>
  <unicode hex="201E"/>
  <outline>
    <contour>
      <point x="190" y="-307" type="line"/>
      <point x="358" y="-257"/>
      <point x="545" y="-187"/>
      <point x="545" y="53" type="curve" smooth="yes"/>
      <point x="545" y="415" type="line"/>
      <point x="127" y="415" type="line"/>
      <point x="127" y="0" type="line"/>
      <point x="305" y="0" type="line"/>
      <point x="305" y="-102"/>
      <point x="255" y="-147"/>
      <point x="128" y="-193" type="curve"/>
    </contour>
    <contour>
      <point x="714" y="-307" type="line"/>
      <point x="882" y="-257"/>
      <point x="1069" y="-187"/>
      <point x="1069" y="53" type="curve" smooth="yes"/>
      <point x="1069" y="415" type="line"/>
      <point x="651" y="415" type="line"/>
      <point x="651" y="0" type="line"/>
      <point x="829" y="0" type="line"/>
      <point x="829" y="-102"/>
      <point x="779" y="-147"/>
      <point x="652" y="-193" type="curve"/>
    </contour>
  </outline>
</glyph>
<glyph name="trademark" format="1">
  <advance width="2207"/>
  <unicode hex="2122"/>
  <outline>
    <contour>
      <point x="994" y="486" type="line"/>
      <point x="1189" y="486" type="line"/>
      <point x="1189" y="1178" type="line"/>
      <point x="1417" y="486" type="line"/>
      <point x="1636" y="486" type="line"/>
      <point x="1863" y="1178" type="line"/>
      <point x="1863" y="486" type="line"/>
      <point x="2058" y="486" type="line"/>
      <point x="2058" y="1492" type="line"/>
      <point x="1780" y="1492" type="line"/>
      <point x="1521" y="746" type="line"/>
      <point x="1271" y="1492" type="line"/>
      <point x="994" y="1492" type="line"/>
    </contour>
    <contour>
      <point x="400" y="486" type="line"/>
      <point x="635" y="486" type="line"/>
      <point x="635" y="1330" type="line"/>
      <point x="891" y="1330" type="line"/>
      <point x="891" y="1492" type="line"/>
      <point x="139" y="1492" type="line"/>
      <point x="139" y="1330" type="line"/>
      <point x="400" y="1330" type="line"/>
    </contour>
  </outline>
</glyph>
<glyph name="lessequal" format="1">
  <advance width="1136"/>
  <unicode hex="2264"/>
  <outline>
    <contour>
      <point x="986" y="298" type="line"/>
      <point x="986" y="599" type="line"/>
      <point x="400" y="821" type="line"/>
      <point x="985" y="1089" type="line"/>
      <point x="985" y="1390" type="line"/>
      <point x="145" y="939" type="line"/>
      <point x="145" y="703" type="line"/>
    </contour>
    <contour>
      <point x="145" y="0" type="line"/>
      <point x="988.6" y="0" type="line"/>
      <point x="988.6" y="212" type="line"/>
      <point x="145" y="212" type="line"/>
    </contour>
  </outline>
</glyph>
